<svg xmlns="http://www.w3.org/2000/svg" viewBox="0 0 1200 300" width="1200" height="300" font-family="'Avenir Next','Helvetica Neue',Helvetica,Arial,sans-serif">
  <defs>
    <radialGradient id="glow" cx="50%" cy="50%" r="62%">
      <stop offset="0%" stop-color="#1a1040" stop-opacity=".85"/>
      <stop offset="55%" stop-color="#0a0a24" stop-opacity=".45"/>
      <stop offset="100%" stop-color="#040714" stop-opacity="0"/>
    </radialGradient>
    <radialGradient id="core" cx="50%" cy="50%" r="50%">
      <stop offset="0%" stop-color="#040714" stop-opacity=".97"/>
      <stop offset="58%" stop-color="#040714" stop-opacity=".9"/>
      <stop offset="100%" stop-color="#040714" stop-opacity="0"/>
    </radialGradient>
    <filter id="soft" x="-60%" y="-60%" width="220%" height="220%">
      <feGaussianBlur stdDeviation="9"/>
    </filter>
  </defs>
  <rect width="1200" height="300" fill="#040714"/>
  <rect width="1200" height="300" fill="url(#glow)"/>
  
  
  <polygon points="600.0,42.0 693.5,96.0 693.5,204.0 600.0,258.0 506.5,204.0 506.5,96.0" fill="none" stroke="rgba(255,255,255,.16)" stroke-width="2.3"/>
  <line x1="600.0" y1="150.0" x2="600.0" y2="42.0" stroke="rgba(255,255,255,.16)" stroke-width="1.4" stroke-dasharray="5 8"/><line x1="600.0" y1="150.0" x2="693.5" y2="96.0" stroke="rgba(255,255,255,.16)" stroke-width="1.4" stroke-dasharray="5 8"/><line x1="600.0" y1="150.0" x2="693.5" y2="204.0" stroke="rgba(255,255,255,.16)" stroke-width="1.4" stroke-dasharray="5 8"/><line x1="600.0" y1="150.0" x2="600.0" y2="258.0" stroke="rgba(255,255,255,.16)" stroke-width="1.4" stroke-dasharray="5 8"/><line x1="600.0" y1="150.0" x2="506.5" y2="204.0" stroke="rgba(255,255,255,.16)" stroke-width="1.4" stroke-dasharray="5 8"/><line x1="600.0" y1="150.0" x2="506.5" y2="96.0" stroke="rgba(255,255,255,.16)" stroke-width="1.4" stroke-dasharray="5 8"/>
  
  <circle cx="600.0" cy="42.0" r="27" fill="#ffffff" opacity=".13" filter="url(#soft)"/>
  <circle cx="600.0" cy="42.0" r="16" fill="#040714" stroke="#ffffff" stroke-width="3.2"/>
  <circle cx="693.5" cy="96.0" r="27" fill="#ffffff" opacity=".13" filter="url(#soft)"/>
  <circle cx="693.5" cy="96.0" r="16" fill="#040714" stroke="#ffffff" stroke-width="3.2"/>
  <circle cx="693.5" cy="204.0" r="27" fill="#ffffff" opacity=".13" filter="url(#soft)"/>
  <circle cx="693.5" cy="204.0" r="16" fill="#040714" stroke="#ffffff" stroke-width="3.2"/>
  <circle cx="600.0" cy="258.0" r="27" fill="#ffffff" opacity=".13" filter="url(#soft)"/>
  <circle cx="600.0" cy="258.0" r="16" fill="#040714" stroke="#ffffff" stroke-width="3.2"/>
  <circle cx="506.5" cy="204.0" r="27" fill="#ffffff" opacity=".13" filter="url(#soft)"/>
  <circle cx="506.5" cy="204.0" r="16" fill="#040714" stroke="#ffffff" stroke-width="3.2"/>
  <circle cx="506.5" cy="96.0" r="27" fill="#ffffff" opacity=".13" filter="url(#soft)"/>
  <circle cx="506.5" cy="96.0" r="16" fill="#040714" stroke="#ffffff" stroke-width="3.2"/>
  <circle cx="600" cy="150" r="100" fill="url(#core)"/>
  
  <text x="445.5" y="172.8" text-anchor="end" fill="#f9f9f9" font-weight="700" font-size="65" letter-spacing="10.4">TRABAJO</text>
  
  <text x="754.5" y="172.8" text-anchor="start" fill="#f9f9f9" font-weight="700" font-size="65" letter-spacing="10.4">TRABAJO</text>
</svg>