<svg xmlns="http://www.w3.org/2000/svg" viewBox="0 0 1600 1180" width="1600" height="1180" font-family="'Avenir Next','Helvetica Neue',Helvetica,Arial,sans-serif">
  <defs>
    <radialGradient id="glow" cx="50%" cy="42%" r="62%">
      <stop offset="0%" stop-color="#1a1040" stop-opacity=".85"/>
      <stop offset="55%" stop-color="#0a0a24" stop-opacity=".45"/>
      <stop offset="100%" stop-color="#040714" stop-opacity="0"/>
    </radialGradient>
    <filter id="soft" x="-60%" y="-60%" width="220%" height="220%">
      <feGaussianBlur stdDeviation="9"/>
    </filter>
    <filter id="softer" x="-60%" y="-60%" width="220%" height="220%">
      <feGaussianBlur stdDeviation="20"/>
    </filter>
  </defs>
  <rect width="1600" height="1180" fill="#040714"/>
  <rect width="1600" height="1180" fill="url(#glow)"/>
  
  
  <text x="96" y="108" fill="#B015B0" font-size="20" font-weight="700" letter-spacing="3.4">EFFICIENCY FALLOFF</text>
  <text x="96" y="156" fill="#f9f9f9" font-size="42" font-weight="700" letter-spacing="-.4">A born Emission pointed at everyone else’s work.</text>
  <text x="96" y="192" fill="rgba(255,255,255,.5)" font-size="21">You keep 100% at home and shed about 20% for every step around the ring.</text>
  <polygon points="800.0,575.0 865.0,612.5 865.0,687.5 800.0,725.0 735.0,687.5 735.0,612.5" fill="none" stroke="rgba(255,255,255,.09)" stroke-width="1"/><polygon points="800.0,500.0 929.9,575.0 929.9,725.0 800.0,800.0 670.1,725.0 670.1,575.0" fill="none" stroke="rgba(255,255,255,.09)" stroke-width="1"/><polygon points="800.0,425.0 994.9,537.5 994.9,762.5 800.0,875.0 605.1,762.5 605.1,537.5" fill="none" stroke="rgba(255,255,255,.09)" stroke-width="1"/><polygon points="800.0,350.0 1059.8,500.0 1059.8,800.0 800.0,950.0 540.2,800.0 540.2,500.0" fill="none" stroke="rgba(255,255,255,.09)" stroke-width="1"/>
  <line x1="800" y1="650" x2="800.0" y2="350.0" stroke="rgba(255,255,255,.16)" stroke-width="1.2" stroke-dasharray="5 8"/><line x1="800" y1="650" x2="1059.8" y2="500.0" stroke="rgba(255,255,255,.16)" stroke-width="1.2" stroke-dasharray="5 8"/><line x1="800" y1="650" x2="1059.8" y2="800.0" stroke="rgba(255,255,255,.16)" stroke-width="1.2" stroke-dasharray="5 8"/><line x1="800" y1="650" x2="800.0" y2="950.0" stroke="rgba(255,255,255,.16)" stroke-width="1.2" stroke-dasharray="5 8"/><line x1="800" y1="650" x2="540.2" y2="800.0" stroke="rgba(255,255,255,.16)" stroke-width="1.2" stroke-dasharray="5 8"/><line x1="800" y1="650" x2="540.2" y2="500.0" stroke="rgba(255,255,255,.16)" stroke-width="1.2" stroke-dasharray="5 8"/>
  <polygon points="800.0,410.0 955.9,560.0 903.9,710.0 800.0,650.0 592.2,770.0 540.2,500.0" fill="#fb923c" fill-opacity=".17" stroke="#fb923c" stroke-width="3" stroke-linejoin="round"/>
  
  <g opacity="1">
    <circle cx="800" cy="350" r="65" fill="#f43f5e" opacity=".16" filter="url(#soft)"/>
    <circle cx="800" cy="350" r="52" fill="#040714" stroke="#f43f5e" stroke-width="2.5"/>
    <text x="800" y="346" text-anchor="middle" font-family="'Hiragino Sans','Hiragino Kaku Gothic ProN','Yu Gothic',sans-serif" font-size="38" fill="#f43f5e">強</text>
    <text x="800" y="380" text-anchor="middle" fill="#f43f5e" font-size="26" font-weight="700">80%</text>
    
    <text x="800" y="262" text-anchor="middle" fill="#f9f9f9" font-size="25" font-weight="700">Enhancement</text>
    <text x="800" y="289" text-anchor="middle" fill="#cacaca" font-size="21">Backend / Core</text>
  </g>
  <g opacity="1">
    <circle cx="1059.8076211353316" cy="500" r="65" fill="#a78bfa" opacity=".16" filter="url(#soft)"/>
    <circle cx="1059.8076211353316" cy="500" r="52" fill="#040714" stroke="#a78bfa" stroke-width="2.5"/>
    <text x="1059.8076211353316" y="496" text-anchor="middle" font-family="'Hiragino Sans','Hiragino Kaku Gothic ProN','Yu Gothic',sans-serif" font-size="38" fill="#a78bfa">変</text>
    <text x="1059.8076211353316" y="530" text-anchor="middle" fill="#a78bfa" font-size="26" font-weight="700">60%</text>
    
    <text x="1131.8076211353316" y="474" text-anchor="start" fill="#f9f9f9" font-size="25" font-weight="700">Transmutation</text>
    <text x="1131.8076211353316" y="501" text-anchor="start" fill="#cacaca" font-size="21">Data / ML</text>
  </g>
  <g opacity="1">
    <circle cx="1059.8076211353316" cy="800" r="65" fill="#4ade80" opacity=".16" filter="url(#soft)"/>
    <circle cx="1059.8076211353316" cy="800" r="52" fill="#040714" stroke="#4ade80" stroke-width="2.5"/>
    <text x="1059.8076211353316" y="796" text-anchor="middle" font-family="'Hiragino Sans','Hiragino Kaku Gothic ProN','Yu Gothic',sans-serif" font-size="38" fill="#4ade80">具</text>
    <text x="1059.8076211353316" y="830" text-anchor="middle" fill="#4ade80" font-size="26" font-weight="700">40%</text>
    
    <text x="1131.8076211353316" y="818" text-anchor="start" fill="#f9f9f9" font-size="25" font-weight="700">Conjuration</text>
    <text x="1131.8076211353316" y="845" text-anchor="start" fill="#cacaca" font-size="21">Frontend / Product</text>
  </g>
  <g opacity="0.42">
    <circle cx="800" cy="950" r="65" fill="#facc15" opacity=".16" filter="url(#soft)"/>
    <circle cx="800" cy="950" r="52" fill="#040714" stroke="#facc15" stroke-width="2.5"/>
    <text x="800" y="946" text-anchor="middle" font-family="'Hiragino Sans','Hiragino Kaku Gothic ProN','Yu Gothic',sans-serif" font-size="38" fill="#facc15">特</text>
    <text x="800" y="980" text-anchor="middle" fill="#facc15" font-size="26" font-weight="700">0%</text>
    
    <text x="800" y="1042" text-anchor="middle" fill="#f9f9f9" font-size="25" font-weight="700">Specialization</text>
    <text x="800" y="1069" text-anchor="middle" fill="#cacaca" font-size="21">Specialist</text>
  </g>
  <g opacity="1">
    <circle cx="540.1923788646684" cy="800" r="65" fill="#38bdf8" opacity=".16" filter="url(#soft)"/>
    <circle cx="540.1923788646684" cy="800" r="52" fill="#040714" stroke="#38bdf8" stroke-width="2.5"/>
    <text x="540.1923788646684" y="796" text-anchor="middle" font-family="'Hiragino Sans','Hiragino Kaku Gothic ProN','Yu Gothic',sans-serif" font-size="38" fill="#38bdf8">操</text>
    <text x="540.1923788646684" y="830" text-anchor="middle" fill="#38bdf8" font-size="26" font-weight="700">80%</text>
    
    <text x="468.1923788646684" y="818" text-anchor="end" fill="#f9f9f9" font-size="25" font-weight="700">Manipulation</text>
    <text x="468.1923788646684" y="845" text-anchor="end" fill="#cacaca" font-size="21">Management / PM</text>
  </g>
  <g opacity="1">
    <circle cx="540.1923788646684" cy="500" r="65" fill="#fb923c" opacity=".16" filter="url(#soft)"/>
    <circle cx="540.1923788646684" cy="500" r="52" fill="#040714" stroke="#fb923c" stroke-width="2.5"/>
    <text x="540.1923788646684" y="496" text-anchor="middle" font-family="'Hiragino Sans','Hiragino Kaku Gothic ProN','Yu Gothic',sans-serif" font-size="38" fill="#fb923c">放</text>
    <text x="540.1923788646684" y="530" text-anchor="middle" fill="#fb923c" font-size="26" font-weight="700">100%</text>
    
    <text x="468.1923788646684" y="474" text-anchor="end" fill="#f9f9f9" font-size="25" font-weight="700">Emission</text>
    <text x="468.1923788646684" y="501" text-anchor="end" fill="#cacaca" font-size="21">Infra / SRE / Platform</text>
  </g>
  
  <circle cx="1059.8" cy="800.0" r="72" fill="none" stroke="#4ade80" stroke-width="2" stroke-dasharray="6 8" opacity=".7"/>
  <text x="1151.8" y="896.0" fill="#4ade80" font-size="22" font-weight="700">“Hey, can you do the website?”</text>
  <text x="1151.8" y="926.0" fill="rgba(255,255,255,.5)" font-size="20">The opposite corner. This is the 40%.</text>
  <text x="96" y="1098" fill="rgba(255,255,255,.34)" font-size="17">Born Emission (Infra / SRE / Platform) — the shape is what carries over.</text>
  <text x="96" y="1130" fill="rgba(255,255,255,.34)" font-size="17">Specialization is locked at 0 for everyone who is not one. You do not step around the ring into it.</text>
</svg>